<svg xmlns="http://www.w3.org/2000/svg" xmlns:xlink="http://www.w3.org/1999/xlink" width="93" height="93" viewBox="0 0 93 93"><defs><path id="8l55a" d="M807 1031a45 45 0 1 1 0 90 45 45 0 0 1 0-90z"/><path id="8l55c" d="M796.16 1090.17a.92.92 0 0 1-1.33 0l-13.45-13.5a.93.93 0 0 1 0-1.34l13.45-13.5a.92.92 0 0 1 1.33 0l1.44 1.44c.37.38.37.96 0 1.34L786.25 1076l11.35 11.4c.37.37.37.95 0 1.32zm7.73 5.05c-.14.49-.66.78-1.12.63l-1.8-.49a.94.94 0 0 1-.63-1.16l10.77-37.42c.14-.5.66-.78 1.12-.64l1.8.5c.48.14.77.66.63 1.16zm16.28-5.05a.92.92 0 0 1-1.33 0l-1.44-1.45a.93.93 0 0 1 0-1.33l11.35-11.39-11.35-11.4a.93.93 0 0 1 0-1.33l1.44-1.44a.92.92 0 0 1 1.33 0l13.45 13.5c.38.38.38.96 0 1.34z"/><clipPath id="8l55b"><use fill="#fff" xlink:href="#8l55a"/></clipPath></defs><g><g transform="translate(-760 -1029)"><g><use fill="#fff" xlink:href="#8l55a"/><use fill="#fff" fill-opacity="0" stroke="#ddd" stroke-miterlimit="50" stroke-width="4" clip-path="url(&quot;#8l55b&quot;)" xlink:href="#8l55a"/></g><g><use fill="#c0301c" xlink:href="#8l55c"/></g></g></g></svg>