<svg xmlns="http://www.w3.org/2000/svg" xmlns:xlink="http://www.w3.org/1999/xlink" width="19" height="15" viewBox="0 0 19 15"><defs><path id="s9mka" d="M735 6278.42c-.59.24-1.23.4-1.89.47.68-.37 1.2-.96 1.44-1.67-.63.35-1.34.6-2.08.74a3.4 3.4 0 0 0-2.4-.96c-1.81 0-3.27 1.36-3.27 3.03 0 .23.03.47.08.7a9.6 9.6 0 0 1-6.76-3.18c-.29.45-.45.97-.45 1.53 0 1.05.58 1.98 1.46 2.52a3.52 3.52 0 0 1-1.48-.38v.04a3.1 3.1 0 0 0 2.63 2.97 3.76 3.76 0 0 1-1.48.05 3.26 3.26 0 0 0 3.06 2.1 6.92 6.92 0 0 1-4.86 1.26 9.83 9.83 0 0 0 5.04 1.36c6.03 0 9.33-4.61 9.33-8.62l-.01-.39c.63-.43 1.2-.97 1.64-1.57z"/></defs><g><g transform="translate(-717 -6275)"><use fill="#fff" xlink:href="#s9mka"/></g></g></svg>